{"title":"HP Lovecraft       Live - May 11, 1968","uid":4878080,"size":304383186,"categoryP":"audio","categoryS":"flac","magnet":"?xt=urn:btih:c7069d7689d6cd19a327c2bd9fe78aa6961373b9&amp;dn=HP+Lovecraft+++++++Live+-+May+11%2C+1968&amp;tr=udp%3A%2F%2Ftracker.openbittorrent.com%3A80&amp;tr=udp%3A%2F%2Fopen.demonii.com%3A1337&amp;tr=udp%3A%2F%2Ftracker.coppersurfer.tk%3A6969&amp;tr=udp%3A%2F%2Fexodus.desync.com%3A6969","seeders":0,"leechers":0,"uploader":"sowingmyseed","files":10,"time":1241226888,"description":"Exact Audio Copy V0.99 prebeta 3 from 28. July 2007\n\nEAC extraction logfile from 2. May 2009, 6:11\n\nH.P. Lovecraft / Live - May 11, 1968\n\nUsed drive  : PIONEER DVD-RW DVR-K17LF   Adapter: 1  ID: 0\n\nRead mode               : Secure\nUtilize accurate stream : Yes\nDefeat audio cache      : Yes\nMake use of C2 pointers : No\n\nRead offset correction                      : 48\nOverread into Lead-In and Lead-Out          : No\nFill up missing offset samples with silence : Yes\nDelete leading and trailing silent blocks   : No\nNull samples used in CRC calculations       : No\nUsed interface                              : Native Win32 interface for Win NT &amp; 2000\nGap handling                                : Not detected, thus appended to previous track\n\nUsed output format : Internal WAV Routines\nSample format      : 44.100 Hz; 16 Bit; Stereo\n\n\nTOC of the extracted CD\n\n     Track |   Start  |  Length  | Start sector | End sector \n    ---------------------------------------------------------\n        1  |  0:00.32 | 10:24.15 |        32    |    46846   \n        2  | 10:24.47 |  8:24.33 |     46847    |    84679   \n        3  | 18:49.05 |  4:54.50 |     84680    |   106779   \n        4  | 23:43.55 |  7:02.00 |    106780    |   138429   \n        5  | 30:45.55 |  4:33.12 |    138430    |   158916   \n        6  | 35:18.67 |  3:35.45 |    158917    |   175086   \n        7  | 38:54.37 |  2:54.08 |    175087    |   188144   \n        8  | 41:48.45 |  3:44.62 |    188145    |   205006   \n\n\nTrack  1\n\n     Filename C:UserscostcoMusicLive - May 11, 1968H.P. Lovecraft - Live - May 11, 1968 - 01 - Wayfaring Stranger.wav\n\n     Peak level 98.9 %\n     Track quality 100.0 %\n     Copy CRC 3EE52B22\n     Track not present in AccurateRip database\n     Copy OK\n\nTrack  2\n\n     Filename C:UserscostcoMusicLive - May 11, 1968H.P. Lovecraft - Live - May 11, 1968 - 02 - The Drifter.wav\n\n     Peak level 72.9 %\n     Track quality 100.0 %\n     Copy CRC F82C974B\n     Track not present in AccurateRip database\n     Copy OK\n\nTrack  3\n\n     Filename C:UserscostcoMusicLive - May 11, 1968H.P. Lovecraft - Live - May 11, 1968 - 03 - It's About Time.wav\n\n     Peak level 82.9 %\n     Track quality 100.0 %\n     Copy CRC 9FE624C7\n     Track not present in AccurateRip database\n     Copy OK\n\nTrack  4\n\n     Filename C:UserscostcoMusicLive - May 11, 1968H.P. Lovecraft - Live - May 11, 1968 - 04 - The White Ship.wav\n\n     Peak level 69.6 %\n     Track quality 100.0 %\n     Copy CRC 30091898\n     Track not present in AccurateRip database\n     Copy OK\n\nTrack  5\n\n     Filename C:UserscostcoMusicLive - May 11, 1968H.P. Lovecraft - Live - May 11, 1968 - 05 - At The Mountains Of Madness.wav\n\n     Peak level 74.5 %\n     Track quality 100.0 %\n     Copy CRC 88CA3F7C\n     Track not present in AccurateRip database\n     Copy OK\n\nTrack  6\n\n     Filename C:UserscostcoMusicLive - May 11, 1968H.P. Lovecraft - Live - May 11, 1968 - 06 - The Bag I'm In.wav\n\n     Peak level 78.1 %\n     Track quality 100.0 %\n     Copy CRC D151DD7B\n     Track not present in AccurateRip database\n     Copy OK\n\nTrack  7\n\n     Filename C:UserscostcoMusicLive - May 11, 1968H.P. Lovecraft - Live - May 11, 1968 - 07 - I've Been Wrong Before.wav\n\n     Peak level 63.9 %\n     Track quality 100.0 %\n     Copy CRC 30A8182A\n     Track not present in AccurateRip database\n     Copy OK\n\nTrack  8\n\n     Filename C:UserscostcoMusicLive - May 11, 1968H.P. Lovecraft - Live - May 11, 1968 - 08 - Country Boy &amp; Bleeker Street.wav\n\n     Peak level 66.7 %\n     Track quality 99.9 %\n     Copy CRC 85F39B97\n     Track not present in AccurateRip database\n     Copy OK\n\n\nNone of the tracks are present in the AccurateRip database\n\nNo errors occurred\n\nEnd of status report\n","torrent":{"xt":"urn:btih:c7069d7689d6cd19a327c2bd9fe78aa6961373b9","amp;dn":"HP+Lovecraft+++++++Live+-+May+11%2C+1968","amp;tr":["udp%3A%2F%2Ftracker.openbittorrent.com%3A80","udp%3A%2F%2Fopen.demonii.com%3A1337","udp%3A%2F%2Ftracker.coppersurfer.tk%3A6969","udp%3A%2F%2Fexodus.desync.com%3A6969"],"infoHash":"c7069d7689d6cd19a327c2bd9fe78aa6961373b9","infoHashBuffer":{"type":"Buffer","data":[199,6,157,118,137,214,205,25,163,39,194,189,159,231,138,166,150,19,115,185]},"announce":[],"urlList":[]}}